<svg xmlns="http://www.w3.org/2000/svg" xmlns:xlink="http://www.w3.org/1999/xlink" width="150px" height="80px" viewBox="0 0 150 80"><title>logo-serghini</title><desc>Created with Sketch.</desc><g id="HOME-PAGE" stroke="none" stroke-width="1" fill="none" fill-rule="evenodd"><g transform="translate(-645.000000, -50.000000)" fill="#000000" id="menu-principal"><g transform="translate(0.000000, 40.000000)"><g id="logo-serghini" transform="translate(645.000000, 10.000000)"><path d="M63.4464473,44.8773163 C63.194413,45.0726706 62.9423787,45.268025 62.6977572,45.4708929 C61.0817727,46.7932913 59.4509626,48.0856352 57.5977693,49.0699204 C56.7378876,49.520738 55.8631804,49.9114467 54.9143454,50.1218282 C54.6400728,50.1819372 54.3658002,50.3322098 54.1285915,50.5050232 C51.8825212,52.1505076 49.5326721,53.6306922 46.9826782,54.7502227 C46.1079709,55.1334177 45.159136,55.3663401 44.2399521,55.6293171 C43.9879178,55.7044534 43.6988197,55.6894261 43.4319598,55.6443443 C42.6313803,55.5015854 42.4534738,55.2010403 42.8241125,54.4647048 C43.8025985,52.5036481 44.8255612,50.5576186 45.8262856,48.6040755 C46.4489585,47.3793542 47.0790442,46.1621466 47.6720661,44.9223981 C48.1687219,43.8780039 47.9166876,43.4346999 46.7825333,43.5474043 C45.6632046,43.6601087 44.5512886,43.9230857 43.4467854,44.178549 C43.231815,44.2311444 43.0539084,44.5241758 42.905653,44.742071 C41.5417027,46.7406959 40.2296419,48.7693753 38.821215,50.730432 C37.5388052,52.5186754 36.0933145,54.1716734 34.3957894,55.5616944 C33.5359077,56.2679754 32.6018983,56.8840929 31.6382378,57.4401013 C31.0971054,57.7556736 30.4447813,57.9209734 29.8221084,58.0336778 C28.6286519,58.2440594 27.6353403,57.8232963 26.9014758,56.8314975 C26.3529306,56.0876484 26.1008963,55.2310948 25.9822919,54.3294596 C25.6783682,51.9927214 25.9229897,49.7311196 27.0349057,47.6273039 C27.8058341,46.1696602 28.888099,45.0501298 30.4299558,44.4189851 C31.0896926,44.1484945 31.7790805,44.0883855 32.4684684,44.178549 C33.2171585,44.2762261 33.8250059,44.6594211 34.2104701,45.3206203 C34.8776197,46.4626917 34.9591602,47.6423312 34.2697723,48.8069434 C33.7286398,49.723606 32.9651242,50.3697779 31.9347487,50.6628094 C30.978501,50.9333 30.0741427,50.8431365 29.2735632,50.1969645 C29.1623716,50.106801 29.0363544,50.0241511 28.8287968,49.8738785 C28.7472563,50.3622643 28.6657158,50.7680002 28.6138264,51.1812497 C28.4878092,52.1505076 28.4062687,53.1272792 28.6434775,54.0890235 C28.9251628,55.2536357 29.6219635,55.6593716 30.7412923,55.2761766 C31.2453608,55.1033632 31.7420166,54.8403862 32.1941958,54.5473547 C33.7731165,53.5330151 35.1222412,52.2331575 36.3453487,50.8205956 C37.7167118,49.2427338 38.9917087,47.5822222 40.2667057,45.9292242 C40.6892338,45.3807294 40.9931575,44.7495847 41.3786217,44.1109263 C41.1191746,43.9681674 40.9190298,43.8780039 40.7411232,43.7577859 C39.9108926,43.2092911 39.8886543,42.142356 40.7040593,41.5788339 C41.3563834,41.1280163 42.1050735,40.9401756 42.8834146,41.0303391 C43.1428617,41.0603936 43.4245471,41.2632616 43.6098664,41.4661295 C43.8693135,41.759161 44.0398072,42.1348423 44.2918415,42.5480918 C44.7736718,42.4729556 45.2703276,42.382792 45.7818089,42.3301967 C46.6639289,42.2325195 47.5460489,42.1123015 48.4281689,42.082247 C48.9099992,42.0672197 49.4140678,42.1724105 49.8736597,42.322683 C50.5852859,42.5480918 50.9336862,43.0815594 50.8002563,43.8254085 C50.6964775,44.4039578 50.4815071,44.9825071 50.2072345,45.5009474 C49.3028762,47.1915136 48.3466284,48.8595388 47.4052062,50.5350777 C47.0419804,51.1887633 46.6713417,51.8424489 46.3229414,52.5036481 C46.1746859,52.7891659 46.0560815,53.089711 45.9374772,53.3602016 C46.1746859,53.7208557 46.4489585,53.6006377 46.69358,53.4879333 C47.2347125,53.2399836 47.7832577,52.9995475 48.2799135,52.6839752 C49.962613,51.639581 51.6304869,50.5576186 53.2983609,49.4906835 C53.5059185,49.3629519 53.6764123,49.2352202 53.7357145,48.9346751 C54.3361491,45.7038153 55.811291,43.0815594 58.7912258,41.496184 C61.2967431,40.166272 63.9431031,39.3548002 66.7599569,39.1068505 C67.0268167,39.0843096 67.3085021,39.076796 67.5753619,39.1068505 C68.3759414,39.1744732 68.7021034,39.6553453 68.4278308,40.4517898 C68.0720177,41.4886704 67.6643152,42.5105237 67.2566127,43.532377 C66.8414974,44.5692576 66.396731,45.5986246 65.9149007,46.7482095 C66.166935,46.658046 66.330016,46.6355051 66.4560332,46.5603689 C69.4656191,44.7946664 72.4752049,43.0139367 75.4922036,41.2482343 C75.8999061,41.0077982 76.1445276,40.6922259 76.3372597,40.2639491 C78.3905979,35.6881501 80.4365233,31.1048374 82.5491636,26.5515792 C83.4683475,24.5830088 84.5654379,22.704602 86.0554053,21.0966857 C86.9894147,20.082346 88.0568541,19.3084424 89.4652809,19.1656835 C89.5171704,19.1581699 89.561647,19.1506562 89.6135364,19.1431426 C90.5994352,19.0454655 91.1109166,19.5113104 91.0664399,20.52565 C91.0442016,20.9689541 90.9626611,21.4197717 90.8737078,21.8630757 C90.5549586,23.3883421 89.9841751,24.8309585 89.3466766,26.2435205 C87.1302574,31.1048374 84.268927,35.5303639 80.4958255,39.2871776 C79.5692288,40.2113537 78.8353643,41.173098 78.420249,42.4053329 C78.3090574,42.7284189 78.1608019,43.0364776 78.0347848,43.3445363 C78.0792614,43.3745909 78.1311508,43.412159 78.1756275,43.4422135 C78.3980107,43.2243183 78.6129811,43.0064231 78.8353643,42.7885279 C80.3772211,41.2632616 82.0302695,39.8657269 83.9057011,38.7837645 C84.4097697,38.4907331 84.9805532,38.2803515 85.5513367,38.1375926 C86.3222651,37.9497519 86.8337465,38.3930559 86.7596188,39.1895004 C86.7077293,39.722968 86.5372356,40.2639491 86.3445035,40.7673622 C85.803371,42.1648969 85.2103492,43.5398907 84.6469784,44.9299117 C84.528374,45.2229432 84.4690719,45.5385155 84.3430547,46.0043604 C84.7952339,45.891656 85.1362214,45.8691151 85.4253196,45.7338698 C86.3963929,45.2905658 87.3674662,44.8622891 88.2940628,44.3438488 C91.7632406,42.4203602 95.0767502,40.2338946 98.2938937,37.9121838 C98.9165667,37.4613661 99.5392396,37.0105485 100.176738,36.5822717 C100.740109,36.2065904 101.347956,35.9360998 102.037344,35.9060453 C102.608128,35.8835044 102.830511,36.0788587 102.763796,36.657408 C102.711907,37.1533074 102.600715,37.6492068 102.437634,38.1150517 C102.096646,39.0542551 101.696357,39.9709177 101.318305,40.8950938 C101.110748,41.4060205 100.895777,41.9094335 100.717871,42.4278738 C100.628917,42.6683099 100.606679,42.9388005 100.547377,43.2168047 C101.021794,43.3745909 101.370195,43.2092911 101.688944,43.0515049 C102.815685,42.4879828 103.964665,41.9470017 105.04693,41.315857 C107.100268,40.1136766 109.116542,38.8589008 111.14023,37.5966114 C111.7036,37.2434709 112.229907,36.8227078 112.756214,36.4094583 C113.260283,36.0187497 113.831066,36.0037224 114.394437,36.394431 C114.935569,36.7625988 115.054174,37.1382801 114.802139,37.8220202 C114.683535,38.1451062 114.498216,38.4456513 114.327722,38.75371 C114.157228,39.076796 113.971909,39.3848547 113.905194,39.7905906 C114.023798,39.6929134 114.149815,39.6027499 114.253594,39.4900455 C115.936294,37.7093158 117.774662,36.1239405 119.790936,34.7489466 C120.450673,34.298129 121.147473,33.9299613 121.94064,33.7721751 C122.889475,33.5768208 123.386131,34.0050975 123.252701,34.9818691 C123.193399,35.4251731 123.045143,35.8609635 122.882062,36.274213 C122.355755,37.5966114 121.799797,38.9039826 121.27349,40.226381 C121.117822,40.609576 121.021456,41.0153119 120.895439,41.4285614 C121.355031,41.6088884 121.710844,41.4586159 122.037006,41.3083433 C123.022905,40.8424984 124.008804,40.3841672 124.965051,39.8582133 C128.552834,37.8821293 131.977535,35.6580956 135.298457,33.2462212 C135.743224,32.9231352 136.165752,32.5699947 136.647582,32.3295586 C137.188714,32.0515544 137.774323,31.8336592 138.367345,31.6683594 C138.901065,31.5256005 139.175338,31.7735502 139.145686,32.3370723 C139.123448,32.8029172 139.04932,33.2913029 138.893652,33.7270933 C138.493362,34.8315965 138.018945,35.9060453 137.589004,36.9955212 C137.344383,37.6116387 137.129412,38.2427834 136.921854,38.813819 C137.188714,39.1669595 137.433336,39.0692824 137.655719,38.9716052 C138.315456,38.693601 138.997431,38.4456513 139.620104,38.1075381 C142.562975,36.5146491 145.431718,34.7940284 148.211508,32.9231352 C148.522844,32.7127536 148.80453,32.4723176 149.108453,32.261936 C149.345662,32.0966362 149.627348,32.0214999 149.857144,32.2469087 C150.079527,32.4723176 150.012812,32.7728626 149.857144,33.0057851 C149.723714,33.208653 149.545807,33.3964937 149.345662,33.5392526 C145.528084,36.1915631 141.591902,38.633492 137.359208,40.5344397 C136.395548,40.9627165 135.357759,41.2332071 134.334797,41.5112113 C133.712124,41.6765111 133.430438,41.4511023 133.423026,40.8124439 C133.423026,40.346599 133.482328,39.8506996 133.637996,39.4149092 C134.112413,38.1000244 134.646133,36.8076805 135.165027,35.5153366 C135.253981,35.2899278 135.365172,35.0720326 135.372585,34.7489466 C134.868516,35.064519 134.357035,35.3650641 133.867792,35.7031773 C130.168818,38.2578106 126.321589,40.5644942 122.363168,42.6758235 C121.429159,43.1717229 120.435847,43.5624315 119.442535,43.9381129 C119.064484,44.0808718 118.62713,44.0808718 118.212015,44.0733582 C117.752423,44.0658446 117.470738,43.7577859 117.418848,43.3219955 C117.374372,42.908746 117.374372,42.4654419 117.448499,42.0597061 C117.752423,40.4743307 118.419573,39.016687 119.094135,37.5740705 C119.249803,37.2434709 119.405472,36.9053577 119.64268,36.4019447 C119.323931,36.5597308 119.146025,36.6198399 119.005182,36.7325443 C117.018559,38.2653242 115.113476,39.903295 113.482666,41.8342972 C113.149091,42.2325195 112.822929,42.6607963 112.600546,43.1266412 C112.118716,44.1484945 110.658399,43.7878404 110.235871,43.1116139 C110.12468,42.9312868 110.12468,42.6232281 110.183982,42.4053329 C110.436016,41.5187249 110.725114,40.6396305 111.0068,39.7605361 C111.073515,39.5576682 111.14023,39.3548002 111.103166,39.0617688 C110.836306,39.2270686 110.576859,39.3848547 110.309999,39.5576682 C107.515384,41.3609387 104.661466,43.0515049 101.659293,44.4790941 C100.517726,45.0200752 99.3613331,45.5234883 98.1085744,45.7564107 C97.98997,45.7789516 97.8639529,45.8090061 97.7453485,45.8165197 C97.2561055,45.8390606 97.011484,45.6737608 97.0263095,45.1853751 C97.0485479,44.5917985 97.0856117,43.9681674 97.2783438,43.4196726 C97.7156974,42.1724105 98.2568299,40.9627165 98.7534857,39.7379952 C98.8424389,39.5125864 98.9313922,39.2946912 99.0944732,38.9039826 C98.6200558,39.2120413 98.2790682,39.399882 97.9751445,39.6252908 C94.6171583,42.0672197 91.0664399,44.1860626 87.4490067,46.1997147 C86.5001717,46.7331823 85.5365112,47.2441089 84.5431996,47.6949266 C83.87605,48.0029853 83.1644238,48.2584486 82.4527976,48.4312621 C81.2148645,48.7393208 80.6663192,48.2734759 80.8590513,47.0111865 C80.999894,46.1095512 81.2815794,45.2154296 81.5855031,44.3438488 C81.9116651,43.4046454 82.341606,42.4954965 82.7270702,41.5713203 C82.8086107,41.375966 82.8753256,41.173098 82.8530873,40.8650393 C82.601053,41.0378527 82.3341932,41.1956389 82.0969845,41.3834796 C80.3179189,42.7810143 78.6352194,44.298767 77.1600776,46.0269013 C76.6634218,46.6129642 76.263132,47.2816771 75.8406039,47.927849 C75.4180759,48.574021 74.2394449,48.7318072 73.6983125,48.2058533 C73.4092144,47.927849 73.4018016,47.5822222 73.520406,47.2290817 C73.7131381,46.658046 73.9132829,46.094524 74.1282534,45.5385155 C74.4470026,44.7045029 74.7879902,43.8780039 75.1734544,42.9162596 C74.9214201,43.0139367 74.7731646,43.0515049 74.6397347,43.1266412 C71.5930849,44.944939 68.5612607,46.7632368 65.5071982,48.574021 C65.121734,48.7994298 64.891938,49.0999749 64.7066187,49.5057108 C63.031332,53.2399836 61.3560453,56.9742564 59.6362819,60.6935019 C58.7319236,62.647045 57.6793098,64.5179383 56.3153595,66.1859635 C55.7297505,66.9072718 55.0848392,67.5534437 54.2916725,68.0418295 C53.6245229,68.4475654 52.9054839,68.6880014 52.1197299,68.6955151 C51.2969121,68.7030287 50.7631925,68.4024836 50.5408093,67.6060391 C50.3554899,66.9448399 50.2368856,66.2235317 50.2813622,65.5473052 C50.451856,63.1279172 51.3265632,60.933938 52.5348452,58.8601769 C54.699375,55.1709858 57.5681182,52.1204531 60.9335172,49.5507925 C61.756335,48.9196478 62.3641824,48.2283941 62.6829316,47.2290817 C62.9275532,46.477719 63.2759535,45.7639244 63.5724644,45.0351025 C63.5502261,44.9599662 63.4983367,44.9148845 63.4464473,44.8773163 Z M60.8816278,51.2263315 C60.644419,51.4066585 60.481338,51.5118493 60.3404953,51.6320673 C57.6051821,53.91621 55.3961757,56.6436568 53.7060634,59.7993803 C52.9870244,61.1443196 52.3569387,62.5343406 52.0678405,64.0370661 C51.9418234,64.6907517 51.9344106,65.3744918 51.9863,66.0432046 C52.0381894,66.6593221 52.4681303,66.8697036 52.9944372,66.539104 C53.4466163,66.2610998 53.8617316,65.8779048 54.2027192,65.4646553 C55.1812052,64.2624749 55.907657,62.8949947 56.6044577,61.5200009 C58.227855,58.3116821 59.4583753,54.9305497 60.8000873,51.6020128 C60.8371511,51.5193629 60.8445639,51.4291994 60.8816278,51.2263315 Z M80.6218426,37.2134164 C80.6589065,37.2434709 80.6959703,37.2735254 80.7330342,37.3035799 C80.903528,37.1232529 81.0740218,36.9504395 81.2371028,36.7625988 C83.0754705,34.6587831 84.6247401,32.3370723 86.0628181,29.9402251 C87.308164,27.866464 88.3978416,25.7025393 89.2503105,23.4334238 C89.4801065,22.8323336 89.6506003,22.1936753 89.7543791,21.5625306 C89.8655707,20.9238723 89.5097576,20.6834362 88.9686251,21.0365767 C88.5016204,21.3446354 88.0420285,21.7278304 87.730692,22.1861617 C86.9894147,23.2756377 86.2258991,24.3726273 85.6625283,25.5597804 C84.365293,28.309768 83.1718366,31.112351 81.9561418,33.8999068 C81.4817243,34.9893827 81.066609,36.1089132 80.6218426,37.2134164 Z M66.0260923,41.0077982 C66.003854,40.9627165 65.9890285,40.9251483 65.9667901,40.8800666 C65.7221686,40.8800666 65.4775471,40.8500121 65.2329256,40.8875802 C63.0609831,41.2031525 61.1262493,42.0672197 59.4138987,43.4647544 C58.3464594,44.3363352 57.7905014,45.5159747 57.3976244,46.7932913 C57.3383222,46.981132 57.3753861,47.2065408 57.3605605,47.424436 C57.9684079,47.5070859 58.3538721,47.2065408 58.7393363,46.9661047 C60.6518318,45.7639244 62.3864207,44.3288215 64.0542947,42.7960415 C64.7140315,42.1874377 65.3737683,41.6013748 66.0260923,41.0077982 Z M31.0155649,49.3028428 C31.9569871,49.3103565 32.646375,48.9722432 33.1652691,48.3035304 C33.7360526,47.5747086 33.6545121,46.3950691 33.0096008,45.7564107 C32.3943407,45.1402933 31.5715228,45.1853751 30.7561178,45.8766288 C30.029666,46.4927462 29.6516146,47.3342725 29.3254526,48.2058533 C29.2290865,48.4613166 29.3328654,48.6416436 29.5181847,48.7919162 C29.9926022,49.1751112 30.5189091,49.3328974 31.0155649,49.3028428 Z" id="Shape" fill-rule="nonzero"></path><path d="M1.55563324,72.1213241 C1.21692519,72.0837606 0.863490707,72.0912733 0.539509095,72.0086337 C-0.0348219456,71.8583797 -0.167359878,71.3925923 0.222890701,70.9343176 C0.399607944,70.7314747 0.620504498,70.5286318 0.863490707,70.4459921 C1.36418956,70.2656873 1.88697807,70.0853825 2.4171298,70.0403063 C5.53913443,69.7623365 8.66113906,69.4543158 11.7389644,68.7931982 C13.6607644,68.3799997 15.5752012,67.9442631 17.3571001,67.0652773 C17.7326242,66.8774598 18.1007851,66.6821296 18.4542196,66.4492359 C20.2655714,65.2622294 20.9208978,63.5418211 20.4128357,61.4007017 C20.0594012,59.9206999 19.3893484,58.5834394 18.5425782,57.3513566 C17.3276472,55.5933849 16.0685368,53.865464 14.7873368,52.1525685 C13.1821552,50.0039364 11.5327943,47.8853551 10.2221414,45.5188547 C9.59626781,44.384437 9.04402642,43.2124559 8.71268159,41.9428096 C7.91009078,38.8626028 8.66850228,36.2031071 10.8332885,33.9492972 C12.1881207,32.5369097 13.815392,31.5151825 15.5457483,30.6587347 C18.4983989,29.1937583 21.6204036,28.2471582 24.8013139,27.4958882 C28.2914795,26.6694912 31.8184611,26.0910134 35.3748957,25.6552768 C36.5382842,25.5125355 37.7090359,25.3472561 38.8724244,25.2345656 C39.2553118,25.1970021 39.667652,25.2195402 40.0358129,25.3172053 C40.5512382,25.4524339 40.6543233,25.8581197 40.3377049,26.3013689 C39.969544,26.8197452 39.4099394,27.0376135 38.8282451,27.150304 C38.1066497,27.2855326 37.3776911,27.3606596 36.6487325,27.4583247 C31.2220404,28.1419804 25.8321645,29.0359916 20.6116426,30.7563998 C18.4763093,31.4625936 16.4219713,32.3340668 14.6327092,33.7464543 C13.4619575,34.6705164 12.5636448,35.804934 12.1881207,37.3074739 C11.8862288,38.532044 12.0187667,39.7340759 12.3501115,40.9285952 C12.8434472,42.709105 13.6681276,44.3318481 14.7137046,45.8268754 C16.274707,48.0731725 17.9535208,50.2293174 19.543976,52.4530764 C20.6116426,53.9481037 21.6572197,55.465669 22.6291645,57.0207978 C23.4317553,58.3129822 24.0060863,59.717857 24.2196197,61.2654731 C24.4626059,63.0009068 23.9839967,64.4733959 22.8279714,65.7430421 C21.63513,67.0502519 20.1772127,67.9517758 18.5793943,68.6504569 C15.9507253,69.7999 13.1968816,70.5286318 10.3841322,70.9793938 C7.46093445,71.4526939 4.51564707,71.7832527 1.5777229,72.173913 C1.56299646,72.1664003 1.55563324,72.1438622 1.55563324,72.1213241 Z" id="Path"></path><path d="M64.6551724,3.43196666 C64.6551724,5.41571882 63.0998719,7.02233179 61.1804036,6.95444673 C59.1623064,6.88656168 57.7663294,5.48360388 57.7587425,3.45459501 C57.7435689,1.42558615 59.1471327,0.00754278387 61.1955772,0 C63.5323213,-5.35947029e-16 64.6551724,1.78009699 64.6551724,3.43196666 Z M63.4488662,3.46968058 C63.4640399,2.50420425 62.9481353,1.64432688 62.1287575,1.26718769 C61.3473139,0.905134065 60.3610257,1.05598974 59.7237319,1.6367841 C58.6008808,2.66260271 58.7450306,4.68406879 60.0272052,5.51377501 C60.2927443,5.68725904 60.6265649,5.8004008 60.9376249,5.83811472 C62.333602,6.00405596 63.4261057,4.94806622 63.4488662,3.46968058 Z" id="Shape" fill-rule="nonzero"></path><path d="M82.193545,4.46475068 C82.193545,5.31368214 82.193545,6.11545075 82.193545,6.95652174 C81.767767,6.95652174 81.4208368,6.95652174 81.0344828,6.95652174 C81.0344828,4.63768116 81.0344828,2.38172439 81.0344828,0 C82.0831581,0.0471628592 83.0687553,0.0628838123 84.0543524,0.133628101 C84.8664844,0.188651437 85.4105341,0.644559076 85.6549622,1.43060673 C85.9151598,2.2795382 85.7574643,3.03414394 85.1503364,3.6865635 C85.0084104,3.83591255 84.8428301,3.9538197 84.6535955,4.11888971 C85.166106,5.04642594 85.6628469,5.95824122 86.2068966,6.95652174 C85.7180404,6.95652174 85.3395711,6.95652174 84.8980235,6.95652174 C84.598402,6.42200933 84.2830109,5.85605502 83.9676198,5.28224024 C83.4551093,4.3232621 83.4629941,4.3232621 82.193545,4.46475068 Z M82.2487384,3.32498158 C82.7297098,3.32498158 83.1633726,3.35642348 83.5970353,3.3171211 C84.1726241,3.26995824 84.5116695,2.86907394 84.5432086,2.27167772 C84.5747477,1.69000246 84.3224348,1.29697863 83.7705004,1.171211 C83.2737595,1.06116433 82.7533642,1.02186195 82.2566232,1.21051339 C82.2487384,1.9100958 82.2487384,2.57037583 82.2487384,3.32498158 Z" id="Shape" fill-rule="nonzero"></path><path d="M50.862069,0.0309530921 C51.7607979,0.0309530921 52.6033563,-0.0482868237 53.431872,0.0468010753 C54.6044324,0.189432924 55.2433725,1.17200788 55.166138,2.47946649 C55.0889034,3.71560918 54.3235796,4.51593233 53.1650618,4.5476283 C52.7718679,4.56347628 52.378674,4.5476283 51.9082456,4.5476283 C51.9082456,5.02306779 51.9082456,5.41134338 51.9082456,5.79961897 C51.9082456,6.16412258 51.9082456,6.52862619 51.9082456,6.95652174 C51.543137,6.95652174 51.2271776,6.95652174 50.8690903,6.95652174 C50.862069,4.67441216 50.862069,2.39230259 50.862069,0.0309530921 Z M51.9433522,1.09276796 C51.9433522,1.9089391 51.9433522,2.65379431 51.9433522,3.46996544 C52.3716527,3.46996544 52.7648466,3.50166141 53.1510192,3.46204145 C53.6986821,3.4144975 54.0216628,2.99452595 54.0567694,2.36060662 C54.091876,1.70291532 53.7759167,1.17993187 53.2282537,1.10069196 C52.8210172,1.05314801 52.399738,1.09276796 51.9433522,1.09276796 Z" id="Shape" fill-rule="nonzero"></path><path d="M75.4207246,3.96949589 C75.4207246,4.6508864 75.4207246,5.22135288 75.4207246,5.8868971 C76.4006951,6.02159057 77.4045674,5.87897395 78.4482759,5.9740517 C78.4482759,6.29890066 78.4482759,6.59998019 78.4482759,6.95652174 C77.0540088,6.95652174 75.6597418,6.95652174 74.273442,6.95652174 C74.0981627,6.33059325 74.0901955,0.728929385 74.2654748,0 C75.5721021,0 76.8866968,0 78.2968983,0 C78.3128328,0.301079529 78.3287673,0.602159057 78.3447017,1.00623948 C77.356764,1.00623948 76.4166296,1.00623948 75.4207246,1.00623948 C75.4207246,1.6717837 75.4207246,2.23432703 75.4207246,2.90779439 C76.1776124,2.90779439 76.926533,2.90779439 77.7152898,2.90779439 C77.7152898,3.29602852 77.7152898,3.57333862 77.7152898,3.96949589 C76.9663692,3.96949589 76.2174486,3.96949589 75.4207246,3.96949589 Z" id="Path"></path><path d="M95.2005037,3.94335404 C95.2005037,4.65093168 95.2005037,5.22335404 95.2005037,5.88322981 C96.2094795,6.00248447 97.2265272,5.8752795 98.2758621,5.96273292 C98.2758621,6.30459627 98.2758621,6.59875776 98.2758621,6.95652174 C96.8471523,6.95652174 95.4345861,6.95652174 93.9655172,6.95652174 C93.9655172,4.64298137 93.9655172,2.35329193 93.9655172,0 C95.3296526,0 96.6857161,0 98.0982823,0 C98.0982823,0.294161491 98.0982823,0.588322981 98.0982823,0.99378882 C97.1619527,0.99378882 96.2094795,0.99378882 95.2085755,0.99378882 C95.2085755,1.66161491 95.2085755,2.22608696 95.2085755,2.87801242 C95.9673253,2.87801242 96.7099316,2.87801242 97.5090404,2.87801242 C97.5090404,3.25962733 97.5090404,3.55378882 97.5090404,3.94335404 C96.774506,3.94335404 96.0399716,3.94335404 95.2005037,3.94335404 Z" id="Path"></path><path d="M69.527114,1.01084469 C69.527114,3.0643717 69.527114,4.9825888 69.527114,6.95652174 C69.1551009,6.95652174 68.8617828,6.95652174 68.518386,6.95652174 C68.3395336,6.33568799 68.4611532,5.67505721 68.4396909,5.03034524 C68.4182286,4.39359268 68.4325368,3.75684012 68.4325368,3.12804696 C68.4325368,2.46741618 68.4325368,1.8147448 68.4325368,1.05064173 C67.724281,1.05064173 67.073258,1.05064173 66.3793103,1.05064173 C66.3793103,0.652671376 66.3793103,0.350213909 66.3793103,0 C68.1034483,0 69.8061239,0 71.5517241,0 C71.5517241,0.326335688 71.5517241,0.628793155 71.5517241,1.01084469 C70.9221634,1.01084469 70.2854486,1.01084469 69.527114,1.01084469 Z" id="Path"></path><path d="M102.587712,28.9861777 C102.563693,28.2381477 102.827906,27.7533135 103.324305,27.3585199 C104.277073,26.6104899 105.622156,26.9498739 105.958427,28.0165092 C106.206627,28.792244 105.830324,29.6995767 105.077718,30.1567062 C104.140963,30.7246549 102.988035,30.3921971 102.65977,29.436381 C102.603725,29.2493735 102.595719,29.0415874 102.587712,28.9861777 Z" id="Path"></path><path d="M142.241152,24.8859773 C142.257052,26.0282081 141.438193,26.9057758 140.428532,26.9545295 C139.760724,26.9823888 139.251919,26.7177256 138.981616,26.1814342 C138.592061,25.4222686 138.822614,24.4541583 139.522222,23.8900077 C140.023077,23.486048 140.722685,23.3606812 141.279191,23.5974851 C141.946998,23.876078 142.209351,24.38451 142.241152,24.8859773 Z" id="Path"></path><path d="M89.6551724,0 C89.9386716,0 90.1816709,0 90.4883129,0 C90.5403842,2.02898551 90.4998843,4.03008118 90.5172414,6.08695652 C90.2105994,6.08695652 89.9560287,6.08695652 89.6551724,6.08695652 C89.6551724,4.07888839 89.6551724,2.07779272 89.6551724,0 Z" id="Path"></path><rect id="Rectangle" x="66.3793103" y="76.5217391" width="1" height="3.47826087"></rect><g id="Group" transform="translate(43.103448, 76.521739)"><path d="M0.310223409,0.0740055504 L0.642605634,0.0740055504 L1.51418569,2.02775208 C1.58804841,2.19796485 1.67668367,2.43478261 1.67668367,2.43478261 L1.68406994,2.43478261 C1.68406994,2.43478261 1.7727052,2.19796485 1.84656791,2.02775208 L2.71814797,0.0740055504 L3.05053019,0.0740055504 L3.31643597,3.40425532 L2.99144002,3.40425532 L2.80678323,1.07308048 C2.79201068,0.89546716 2.79939696,0.606845513 2.79939696,0.606845513 L2.79201068,0.606845513 C2.79201068,0.606845513 2.69598915,0.902867715 2.61474017,1.07308048 L1.83179537,2.7826087 L1.52895823,2.7826087 L0.746013437,1.07308048 C0.67215072,0.91026827 0.568742917,0.599444958 0.568742917,0.599444958 L0.561356646,0.599444958 C0.561356646,0.599444958 0.568742917,0.89546716 0.553970374,1.07308048 L0.369313583,3.40425532 L0.0443176299,3.40425532 L0.310223409,0.0740055504 Z" id="Path"></path><path d="M5.80560952,0.0740055504 L6.15276429,0.0740055504 L7.37149911,3.40425532 L7.02434434,3.40425532 L6.64025822,2.34597595 L5.30334305,2.34597595 L4.92664319,3.40425532 L4.57948842,3.40425532 L5.80560952,0.0740055504 Z M6.55162296,2.0573543 L6.11583293,0.85106383 C6.05674276,0.695652174 5.99026631,0.414431082 5.99026631,0.414431082 L5.98288004,0.414431082 C5.98288004,0.414431082 5.90901732,0.695652174 5.85731342,0.85106383 L5.41413712,2.0573543 L6.55162296,2.0573543 Z" id="Shape" fill-rule="nonzero"></path><path d="M8.76750445,0.0740055504 L9.7720374,0.0740055504 C10.0896471,0.0740055504 10.2447588,0.103607771 10.3850979,0.170212766 C10.6805488,0.310823312 10.8799781,0.599444958 10.8799781,1.00647549 C10.8799781,1.45790934 10.6214586,1.82053654 10.2447588,1.92414431 L10.2447588,1.93154487 C10.2447588,1.93154487 10.2816901,1.9759482 10.333394,2.06475486 L11.0572487,3.40425532 L10.6805488,3.40425532 L9.93453537,2.00555042 L9.09988668,2.00555042 L9.09988668,3.40425532 L8.77489072,3.40425532 L8.76750445,0.0740055504 Z M9.88283147,1.70952821 C10.2816901,1.70952821 10.5402096,1.42830712 10.5402096,1.01387604 C10.5402096,0.747456059 10.414643,0.532839963 10.1930549,0.429232192 C10.0970333,0.384828862 9.99362555,0.370027752 9.75726485,0.370027752 L9.0925004,0.370027752 L9.0925004,1.70952821 L9.88283147,1.70952821 Z" id="Shape" fill-rule="nonzero"></path><path d="M13.9674397,0.0148011101 C14.9424276,0.0148011101 15.6588959,0.754856614 15.6588959,1.70952821 C15.6588959,2.68640148 14.9424276,3.4560592 13.9674397,3.4560592 C12.9998381,3.4560592 12.2759835,2.68640148 12.2759835,1.70952821 C12.2759835,0.762257169 12.9998381,0.0148011101 13.9674397,0.0148011101 Z M13.9674397,3.15263645 C14.7503845,3.15263645 15.3191274,2.53098982 15.3191274,1.70952821 C15.3191274,0.92506938 14.7503845,0.318223867 13.9674397,0.318223867 C13.1918812,0.318223867 12.615752,0.917668825 12.615752,1.70952821 C12.615752,2.52358927 13.1918812,3.15263645 13.9674397,3.15263645 Z" id="Shape" fill-rule="nonzero"></path><path d="M18.6651085,0.0148011101 C19.086126,0.0148011101 19.5514611,0.140610546 19.8690707,0.444033302 L19.6918002,0.688251619 C19.4332807,0.458834413 19.034422,0.325624422 18.6724947,0.325624422 C17.8673911,0.325624422 17.3355796,0.932469935 17.3355796,1.71692877 C17.3355796,2.50878816 17.8673911,3.160037 18.6872673,3.160037 C19.0787397,3.160037 19.4775983,2.99722479 19.7582767,2.7160037 L19.9503197,2.94542091 C19.6696414,3.21924144 19.2633965,3.46345976 18.679881,3.46345976 C17.6679618,3.46345976 16.9958111,2.69380204 16.9958111,1.71692877 C16.9958111,0.747456059 17.6901206,0.0148011101 18.6651085,0.0148011101 Z" id="Path"></path><path d="M27.7723814,0.0740055504 L28.8433908,0.0740055504 C29.8479237,0.0740055504 30.5126882,0.688251619 30.5126882,1.73913043 C30.5126882,2.79740981 29.8479237,3.40425532 28.8433908,3.40425532 L27.7723814,3.40425532 L27.7723814,0.0740055504 Z M28.8064594,3.10823312 C29.6263356,3.10823312 30.1655334,2.62719704 30.1655334,1.73172988 C30.1655334,0.843663275 29.6189493,0.362627197 28.8064594,0.362627197 L28.0973774,0.362627197 L28.0973774,3.10823312 L28.8064594,3.10823312 Z" id="Shape" fill-rule="nonzero"></path><polygon id="Path" points="32.0711915 0.0740055504 33.9399182 0.0740055504 33.9399182 0.370027752 32.3961875 0.370027752 32.3961875 1.58371878 33.6592399 1.58371878 33.6592399 1.87974098 32.3961875 1.87974098 32.3961875 3.11563367 34.0285535 3.11563367 34.0285535 3.41165587 32.0711915 3.41165587 32.0711915 0.0740055504"></polygon><path d="M35.5353529,0.0740055504 L36.6876113,0.0740055504 C37.278513,0.0740055504 37.7143031,0.458834413 37.7143031,1.08048104 C37.7143031,1.70212766 37.278513,2.10175763 36.6876113,2.10175763 L35.8677351,2.10175763 L35.8677351,3.41165587 L35.5427392,3.41165587 L35.5427392,0.0740055504 L35.5353529,0.0740055504 Z M36.6432937,1.79833488 C37.08647,1.79833488 37.3745346,1.53191489 37.3745346,1.07308048 C37.3745346,0.621646623 37.08647,0.362627197 36.6432937,0.362627197 L35.8603489,0.362627197 L35.8603489,1.79833488 L36.6432937,1.79833488 Z" id="Shape" fill-rule="nonzero"></path><path d="M39.1324672,0.0740055504 L39.4574632,0.0740055504 L39.4574632,2.23496762 C39.4574632,2.80481036 39.834163,3.15263645 40.3955197,3.15263645 C40.9642626,3.15263645 41.3409624,2.81221092 41.3409624,2.22756707 L41.3409624,0.0740055504 L41.6733447,0.0740055504 L41.6733447,2.24236818 C41.6733447,2.98242368 41.1563056,3.4560592 40.4029059,3.4560592 C39.6495062,3.4560592 39.1324672,2.97502313 39.1324672,2.24236818 L39.1324672,0.0740055504 Z" id="Path"></path><polygon id="Path" points="43.4017322 0.0740055504 43.7267282 0.0740055504 43.7267282 3.40425532 43.4017322 3.40425532"></polygon><path d="M45.4329569,2.7826087 C45.6397725,2.98982424 45.9647685,3.14523589 46.2897644,3.14523589 C46.6812368,3.14523589 46.9619152,2.92321924 46.9619152,2.57539315 C46.9619152,1.73913043 45.3073903,1.93894542 45.3073903,0.902867715 C45.3073903,0.355226642 45.7653392,0.0148011101 46.3488546,0.0148011101 C46.659078,0.0148011101 46.9988465,0.125809436 47.2278209,0.340425532 L47.065323,0.614246068 C46.8880525,0.444033302 46.5999879,0.333024977 46.3340821,0.333024977 C45.9573822,0.333024977 45.6397725,0.540240518 45.6397725,0.89546716 C45.6397725,1.6947271 47.2942974,1.48011101 47.2942974,2.55319149 C47.2942974,3.06382979 46.9175975,3.47086031 46.2749919,3.47086031 C45.8909058,3.47086031 45.5068197,3.32284921 45.2335276,3.04162812 L45.4329569,2.7826087 Z" id="Path"></path><path d="M50.6181196,3.10823312 L51.3641331,3.10823312 L51.3641331,0.666049954 C51.3641331,0.569842738 51.3715193,0.481036078 51.3715193,0.481036078 L51.3641331,0.481036078 C51.3641331,0.481036078 51.334588,0.547641073 51.2016351,0.680851064 L50.8470941,1.02867715 L50.6402785,0.82146161 L51.3936782,0.0740055504 L51.6965153,0.0740055504 L51.6965153,3.10823312 L52.4277562,3.10823312 L52.4277562,3.40425532 L50.6255059,3.40425532 L50.6181196,3.10823312 Z" id="Path"></path><path d="M54.2373927,1.53191489 C54.0084183,1.38390379 53.8385341,1.17668825 53.8385341,0.86586494 C53.8385341,0.421831637 54.1709163,0.0148011101 54.843067,0.0148011101 C55.4561276,0.0148011101 55.8623725,0.362627197 55.8623725,0.873265495 C55.8623725,1.32469935 55.5299903,1.68732655 55.4339688,1.78353377 C55.6998745,1.93894542 55.9066901,2.14616096 55.9066901,2.49398705 C55.9066901,3.0120259 55.4561276,3.4560592 54.8061357,3.4560592 C54.2078477,3.4560592 53.6834224,3.07123034 53.6834224,2.46438483 C53.6686498,1.92414431 54.1044399,1.613321 54.2373927,1.53191489 Z M54.7913631,3.15263645 C55.1828355,3.15263645 55.5595354,2.88621647 55.5595354,2.5013876 C55.5595354,2.04995375 54.9760199,1.91674376 54.4959123,1.67992599 C54.3851182,1.75393154 54.0084183,2.00555042 54.0084183,2.43478261 C54.0084183,2.8640148 54.3998907,3.15263645 54.7913631,3.15263645 Z M55.522604,0.902867715 C55.522604,0.540240518 55.2345394,0.318223867 54.8356808,0.318223867 C54.407277,0.318223867 54.16353,0.562442183 54.16353,0.86586494 C54.16353,1.30989824 54.6953416,1.44310823 55.1532904,1.65772433 C55.2345394,1.57631822 55.522604,1.28029602 55.522604,0.902867715 Z" id="Shape" fill-rule="nonzero"></path><path d="M57.4504209,2.75300648 C57.6350777,2.96022202 57.9526874,3.13783534 58.2998422,3.13783534 C58.6987008,3.13783534 59.0532419,2.84921369 59.0532419,2.4199815 C59.0532419,1.95374653 58.6543832,1.70952821 58.2185932,1.70952821 L57.9896187,1.70952821 L57.9083698,1.51711378 L58.7430185,0.540240518 C58.8316537,0.436632747 58.920289,0.355226642 58.920289,0.355226642 L58.920289,0.347826087 C58.920289,0.347826087 58.8242674,0.362627197 58.6543832,0.362627197 L57.4061033,0.362627197 L57.4061033,0.0666049954 L59.3486927,0.0666049954 L59.3486927,0.281221092 L58.3589323,1.42830712 C58.7725635,1.45050879 59.3930104,1.68732655 59.3930104,2.40518039 C59.3930104,2.97502313 58.9276752,3.44865865 58.2998422,3.44865865 C57.915756,3.44865865 57.5168974,3.27844588 57.2436053,2.99722479 L57.4504209,2.75300648 Z" id="Path"></path><path d="M60.7594706,3.18963922 C60.7594706,2.02035153 62.4656994,1.86493987 62.4656994,0.96947271 C62.4656994,0.606845513 62.1924073,0.333024977 61.7787761,0.333024977 C61.4685527,0.333024977 61.1952606,0.525439408 61.0327627,0.784458834 L60.7890157,0.621646623 C60.9736725,0.288621647 61.3503723,0.0222016651 61.7935486,0.0222016651 C62.4213817,0.0222016651 62.8054679,0.436632747 62.8054679,0.9546716 C62.8054679,2.07215541 61.1287842,2.22756707 61.1213979,3.11563367 L62.864558,3.11563367 L62.864558,3.41165587 L60.7816294,3.41165587 C60.7742432,3.32284921 60.7594706,3.25624422 60.7594706,3.18963922 Z" id="Path"></path></g></g></g></g></g></svg>